# xmcd
#
# Track frame offsets:
#	150
#	16092
#	34272
#	45470
#	63647
#	77817
#	95902
#	124577
#	138552
#	149227
#	161622
#	172932
#
# Disc length: 2568 seconds
#
# Revision: 1
# Processed by: cddbd v1.5.2PL0 Copyright (c) Steve Scherf et al.
# Submitted via: audiograbber 1.83.01
#
DISCID=a80a060c
DTITLE=Sweet Valley Roll - Back to the Valley
DYEAR=1996
DGENRE=Country
TTITLE0=April's Dream
TTITLE1=Lilly
TTITLE2=On My Own Again
TTITLE3=Autumn Fair
TTITLE4=Honey
TTITLE5=Best Friend
TTITLE6=Back to the Valley
TTITLE7=When Soembody Falls
TTITLE8=Changing Me
TTITLE9=Come Down Off That Mountain
TTITLE10=Since I Met You
TTITLE11=Nothing You Do
EXTD=
EXTT0=
EXTT1=
EXTT2=
EXTT3=
EXTT4=
EXTT5=
EXTT6=
EXTT7=
EXTT8=
EXTT9=
EXTT10=
EXTT11=
PLAYORDER=
